<mxfile host="app.diagrams.net" modified="2023-05-08T08:29:02.200Z" agent="Mozilla/5.0 (Macintosh; Intel Mac OS X 10_15_7) AppleWebKit/537.36 (KHTML, like Gecko) Chrome/112.0.0.0 Safari/537.36" etag="jA2_5GJK3rd2rlQlvCbc" version="21.2.9" type="github">
  <diagram name="第 1 页" id="6jHbzXaUElQBDCuESVJe">
    <mxGraphModel dx="1304" dy="5405" grid="1" gridSize="10" guides="1" tooltips="1" connect="1" arrows="1" fold="1" page="1" pageScale="1" pageWidth="3300" pageHeight="4681" math="0" shadow="0">
      <root>
        <mxCell id="0" />
        <mxCell id="1" parent="0" />
        <mxCell id="OqKxdDuaqaki4ZGM4eli-37" value="报告资源" style="edgeStyle=orthogonalEdgeStyle;rounded=0;orthogonalLoop=1;jettySize=auto;html=1;exitX=0;exitY=0.5;exitDx=0;exitDy=0;entryX=0.5;entryY=0;entryDx=0;entryDy=0;" edge="1" parent="1" source="OqKxdDuaqaki4ZGM4eli-35" target="OqKxdDuaqaki4ZGM4eli-29">
          <mxGeometry relative="1" as="geometry" />
        </mxCell>
        <mxCell id="OqKxdDuaqaki4ZGM4eli-35" value="" style="rounded=1;whiteSpace=wrap;html=1;" vertex="1" parent="1">
          <mxGeometry x="960" y="-10" width="270" height="70" as="geometry" />
        </mxCell>
        <mxCell id="OqKxdDuaqaki4ZGM4eli-30" style="edgeStyle=orthogonalEdgeStyle;rounded=0;orthogonalLoop=1;jettySize=auto;html=1;exitX=1;exitY=0.5;exitDx=0;exitDy=0;exitPerimeter=0;entryX=0;entryY=0.5;entryDx=0;entryDy=0;" edge="1" parent="1" source="OqKxdDuaqaki4ZGM4eli-22" target="OqKxdDuaqaki4ZGM4eli-29">
          <mxGeometry relative="1" as="geometry" />
        </mxCell>
        <mxCell id="OqKxdDuaqaki4ZGM4eli-31" value="取最高优先级任务" style="edgeLabel;html=1;align=center;verticalAlign=middle;resizable=0;points=[];" vertex="1" connectable="0" parent="OqKxdDuaqaki4ZGM4eli-30">
          <mxGeometry x="-0.1455" y="-1" relative="1" as="geometry">
            <mxPoint as="offset" />
          </mxGeometry>
        </mxCell>
        <mxCell id="OqKxdDuaqaki4ZGM4eli-22" value="第一分发队列（优先级队列）" style="strokeWidth=2;html=1;shape=mxgraph.flowchart.direct_data;whiteSpace=wrap;" vertex="1" parent="1">
          <mxGeometry x="470" y="120" width="250" height="60" as="geometry" />
        </mxCell>
        <mxCell id="OqKxdDuaqaki4ZGM4eli-23" value="task" style="ellipse;whiteSpace=wrap;html=1;" vertex="1" parent="1">
          <mxGeometry x="620" y="160" width="50" height="30" as="geometry" />
        </mxCell>
        <mxCell id="OqKxdDuaqaki4ZGM4eli-24" value="task" style="ellipse;whiteSpace=wrap;html=1;" vertex="1" parent="1">
          <mxGeometry x="560" y="160" width="50" height="30" as="geometry" />
        </mxCell>
        <mxCell id="OqKxdDuaqaki4ZGM4eli-25" value="task" style="ellipse;whiteSpace=wrap;html=1;" vertex="1" parent="1">
          <mxGeometry x="500" y="160" width="50" height="30" as="geometry" />
        </mxCell>
        <mxCell id="OqKxdDuaqaki4ZGM4eli-26" value="task" style="ellipse;whiteSpace=wrap;html=1;" vertex="1" parent="1">
          <mxGeometry x="380" y="135" width="50" height="30" as="geometry" />
        </mxCell>
        <mxCell id="OqKxdDuaqaki4ZGM4eli-27" value="" style="endArrow=classic;html=1;rounded=0;" edge="1" parent="1">
          <mxGeometry width="50" height="50" relative="1" as="geometry">
            <mxPoint x="440" y="150" as="sourcePoint" />
            <mxPoint x="460" y="150" as="targetPoint" />
          </mxGeometry>
        </mxCell>
        <mxCell id="OqKxdDuaqaki4ZGM4eli-38" style="edgeStyle=orthogonalEdgeStyle;rounded=0;orthogonalLoop=1;jettySize=auto;html=1;exitX=1;exitY=0.5;exitDx=0;exitDy=0;entryX=0.5;entryY=1;entryDx=0;entryDy=0;" edge="1" parent="1" source="OqKxdDuaqaki4ZGM4eli-29" target="OqKxdDuaqaki4ZGM4eli-35">
          <mxGeometry relative="1" as="geometry" />
        </mxCell>
        <mxCell id="OqKxdDuaqaki4ZGM4eli-39" value="Y" style="edgeLabel;html=1;align=center;verticalAlign=middle;resizable=0;points=[];" vertex="1" connectable="0" parent="OqKxdDuaqaki4ZGM4eli-38">
          <mxGeometry x="-0.293" relative="1" as="geometry">
            <mxPoint as="offset" />
          </mxGeometry>
        </mxCell>
        <mxCell id="OqKxdDuaqaki4ZGM4eli-40" style="edgeStyle=orthogonalEdgeStyle;rounded=0;orthogonalLoop=1;jettySize=auto;html=1;exitX=0.5;exitY=1;exitDx=0;exitDy=0;" edge="1" parent="1" source="OqKxdDuaqaki4ZGM4eli-29">
          <mxGeometry relative="1" as="geometry">
            <mxPoint x="930" y="240" as="targetPoint" />
          </mxGeometry>
        </mxCell>
        <mxCell id="OqKxdDuaqaki4ZGM4eli-45" value="N" style="edgeLabel;html=1;align=center;verticalAlign=middle;resizable=0;points=[];" vertex="1" connectable="0" parent="OqKxdDuaqaki4ZGM4eli-40">
          <mxGeometry x="-0.2476" relative="1" as="geometry">
            <mxPoint as="offset" />
          </mxGeometry>
        </mxCell>
        <mxCell id="OqKxdDuaqaki4ZGM4eli-29" value="可以分发?" style="rhombus;whiteSpace=wrap;html=1;" vertex="1" parent="1">
          <mxGeometry x="890" y="110" width="80" height="80" as="geometry" />
        </mxCell>
        <mxCell id="OqKxdDuaqaki4ZGM4eli-32" value="worker" style="ellipse;whiteSpace=wrap;html=1;" vertex="1" parent="1">
          <mxGeometry x="970" width="70" height="50" as="geometry" />
        </mxCell>
        <mxCell id="OqKxdDuaqaki4ZGM4eli-33" value="worker" style="ellipse;whiteSpace=wrap;html=1;" vertex="1" parent="1">
          <mxGeometry x="1060" width="70" height="50" as="geometry" />
        </mxCell>
        <mxCell id="OqKxdDuaqaki4ZGM4eli-34" value="..." style="ellipse;whiteSpace=wrap;html=1;" vertex="1" parent="1">
          <mxGeometry x="1150" width="70" height="50" as="geometry" />
        </mxCell>
        <mxCell id="OqKxdDuaqaki4ZGM4eli-46" style="edgeStyle=orthogonalEdgeStyle;rounded=0;orthogonalLoop=1;jettySize=auto;html=1;exitX=0.5;exitY=1;exitDx=0;exitDy=0;" edge="1" parent="1" source="OqKxdDuaqaki4ZGM4eli-41">
          <mxGeometry relative="1" as="geometry">
            <mxPoint x="405" y="180" as="targetPoint" />
            <Array as="points">
              <mxPoint x="930" y="370" />
              <mxPoint x="405" y="370" />
            </Array>
          </mxGeometry>
        </mxCell>
        <mxCell id="OqKxdDuaqaki4ZGM4eli-48" value="N" style="edgeLabel;html=1;align=center;verticalAlign=middle;resizable=0;points=[];" vertex="1" connectable="0" parent="OqKxdDuaqaki4ZGM4eli-46">
          <mxGeometry x="-0.9436" y="-1" relative="1" as="geometry">
            <mxPoint as="offset" />
          </mxGeometry>
        </mxCell>
        <mxCell id="OqKxdDuaqaki4ZGM4eli-55" style="edgeStyle=orthogonalEdgeStyle;rounded=0;orthogonalLoop=1;jettySize=auto;html=1;exitX=1;exitY=0.5;exitDx=0;exitDy=0;entryX=0;entryY=0.5;entryDx=0;entryDy=0;entryPerimeter=0;" edge="1" parent="1" source="OqKxdDuaqaki4ZGM4eli-41" target="OqKxdDuaqaki4ZGM4eli-53">
          <mxGeometry relative="1" as="geometry" />
        </mxCell>
        <mxCell id="OqKxdDuaqaki4ZGM4eli-56" style="edgeStyle=orthogonalEdgeStyle;rounded=0;orthogonalLoop=1;jettySize=auto;html=1;exitX=1;exitY=0.5;exitDx=0;exitDy=0;" edge="1" parent="1" source="OqKxdDuaqaki4ZGM4eli-41" target="OqKxdDuaqaki4ZGM4eli-42">
          <mxGeometry relative="1" as="geometry" />
        </mxCell>
        <mxCell id="OqKxdDuaqaki4ZGM4eli-57" style="edgeStyle=orthogonalEdgeStyle;rounded=0;orthogonalLoop=1;jettySize=auto;html=1;exitX=1;exitY=0.5;exitDx=0;exitDy=0;entryX=0;entryY=0.5;entryDx=0;entryDy=0;entryPerimeter=0;" edge="1" parent="1" source="OqKxdDuaqaki4ZGM4eli-41" target="OqKxdDuaqaki4ZGM4eli-54">
          <mxGeometry relative="1" as="geometry" />
        </mxCell>
        <mxCell id="OqKxdDuaqaki4ZGM4eli-58" style="edgeStyle=orthogonalEdgeStyle;rounded=0;orthogonalLoop=1;jettySize=auto;html=1;exitX=1;exitY=0.5;exitDx=0;exitDy=0;entryX=0;entryY=0.5;entryDx=0;entryDy=0;entryPerimeter=0;" edge="1" parent="1" source="OqKxdDuaqaki4ZGM4eli-41" target="OqKxdDuaqaki4ZGM4eli-52">
          <mxGeometry relative="1" as="geometry" />
        </mxCell>
        <mxCell id="OqKxdDuaqaki4ZGM4eli-41" value="是否配置了&lt;br&gt;workgroup" style="rhombus;whiteSpace=wrap;html=1;" vertex="1" parent="1">
          <mxGeometry x="890" y="240" width="80" height="80" as="geometry" />
        </mxCell>
        <mxCell id="OqKxdDuaqaki4ZGM4eli-60" style="edgeStyle=orthogonalEdgeStyle;rounded=0;orthogonalLoop=1;jettySize=auto;html=1;exitX=1;exitY=0.5;exitDx=0;exitDy=0;exitPerimeter=0;entryX=1;entryY=0.5;entryDx=0;entryDy=0;" edge="1" parent="1" source="OqKxdDuaqaki4ZGM4eli-42" target="OqKxdDuaqaki4ZGM4eli-35">
          <mxGeometry relative="1" as="geometry" />
        </mxCell>
        <mxCell id="OqKxdDuaqaki4ZGM4eli-42" value="workergroup分发队列（优先级队列）" style="strokeWidth=2;html=1;shape=mxgraph.flowchart.direct_data;whiteSpace=wrap;" vertex="1" parent="1">
          <mxGeometry x="1040" y="260" width="240" height="40" as="geometry" />
        </mxCell>
        <mxCell id="OqKxdDuaqaki4ZGM4eli-50" value="" style="endArrow=classic;html=1;rounded=0;" edge="1" parent="1">
          <mxGeometry width="50" height="50" relative="1" as="geometry">
            <mxPoint x="290" y="150" as="sourcePoint" />
            <mxPoint x="370" y="150" as="targetPoint" />
          </mxGeometry>
        </mxCell>
        <mxCell id="OqKxdDuaqaki4ZGM4eli-78" style="edgeStyle=orthogonalEdgeStyle;rounded=0;orthogonalLoop=1;jettySize=auto;html=1;exitX=0.5;exitY=1;exitDx=0;exitDy=0;entryX=0;entryY=0.5;entryDx=0;entryDy=0;" edge="1" parent="1" source="OqKxdDuaqaki4ZGM4eli-51" target="OqKxdDuaqaki4ZGM4eli-63">
          <mxGeometry relative="1" as="geometry" />
        </mxCell>
        <mxCell id="OqKxdDuaqaki4ZGM4eli-79" value="根据运行时间和最后产出时间计算" style="edgeLabel;html=1;align=center;verticalAlign=middle;resizable=0;points=[];" vertex="1" connectable="0" parent="OqKxdDuaqaki4ZGM4eli-78">
          <mxGeometry x="-0.3333" y="-2" relative="1" as="geometry">
            <mxPoint as="offset" />
          </mxGeometry>
        </mxCell>
        <mxCell id="OqKxdDuaqaki4ZGM4eli-51" value="任务生成/依赖检查" style="rounded=0;whiteSpace=wrap;html=1;" vertex="1" parent="1">
          <mxGeometry x="160" y="120" width="120" height="60" as="geometry" />
        </mxCell>
        <mxCell id="OqKxdDuaqaki4ZGM4eli-62" style="edgeStyle=orthogonalEdgeStyle;rounded=0;orthogonalLoop=1;jettySize=auto;html=1;exitX=1;exitY=0.5;exitDx=0;exitDy=0;exitPerimeter=0;entryX=1;entryY=0.5;entryDx=0;entryDy=0;" edge="1" parent="1" source="OqKxdDuaqaki4ZGM4eli-52" target="OqKxdDuaqaki4ZGM4eli-35">
          <mxGeometry relative="1" as="geometry" />
        </mxCell>
        <mxCell id="OqKxdDuaqaki4ZGM4eli-52" value="workergroup分发队列（优先级队列）" style="strokeWidth=2;html=1;shape=mxgraph.flowchart.direct_data;whiteSpace=wrap;" vertex="1" parent="1">
          <mxGeometry x="1040" y="360" width="240" height="40" as="geometry" />
        </mxCell>
        <mxCell id="OqKxdDuaqaki4ZGM4eli-59" style="edgeStyle=orthogonalEdgeStyle;rounded=0;orthogonalLoop=1;jettySize=auto;html=1;exitX=1;exitY=0.5;exitDx=0;exitDy=0;exitPerimeter=0;entryX=1;entryY=0.5;entryDx=0;entryDy=0;" edge="1" parent="1" source="OqKxdDuaqaki4ZGM4eli-53" target="OqKxdDuaqaki4ZGM4eli-35">
          <mxGeometry relative="1" as="geometry" />
        </mxCell>
        <mxCell id="OqKxdDuaqaki4ZGM4eli-53" value="workergroup分发队列（优先级队列）" style="strokeWidth=2;html=1;shape=mxgraph.flowchart.direct_data;whiteSpace=wrap;" vertex="1" parent="1">
          <mxGeometry x="1040" y="210" width="240" height="40" as="geometry" />
        </mxCell>
        <mxCell id="OqKxdDuaqaki4ZGM4eli-61" style="edgeStyle=orthogonalEdgeStyle;rounded=0;orthogonalLoop=1;jettySize=auto;html=1;exitX=1;exitY=0.5;exitDx=0;exitDy=0;exitPerimeter=0;entryX=1;entryY=0.5;entryDx=0;entryDy=0;" edge="1" parent="1" source="OqKxdDuaqaki4ZGM4eli-54" target="OqKxdDuaqaki4ZGM4eli-35">
          <mxGeometry relative="1" as="geometry">
            <mxPoint x="1260" y="120" as="targetPoint" />
          </mxGeometry>
        </mxCell>
        <mxCell id="OqKxdDuaqaki4ZGM4eli-54" value="...." style="strokeWidth=2;html=1;shape=mxgraph.flowchart.direct_data;whiteSpace=wrap;" vertex="1" parent="1">
          <mxGeometry x="1040" y="310" width="240" height="40" as="geometry" />
        </mxCell>
        <mxCell id="OqKxdDuaqaki4ZGM4eli-66" style="rounded=0;orthogonalLoop=1;jettySize=auto;html=1;exitX=1;exitY=0;exitDx=0;exitDy=0;entryX=0;entryY=0.5;entryDx=0;entryDy=0;" edge="1" parent="1" source="OqKxdDuaqaki4ZGM4eli-63" target="OqKxdDuaqaki4ZGM4eli-65">
          <mxGeometry relative="1" as="geometry" />
        </mxCell>
        <mxCell id="OqKxdDuaqaki4ZGM4eli-72" style="rounded=0;orthogonalLoop=1;jettySize=auto;html=1;exitX=1;exitY=0.5;exitDx=0;exitDy=0;entryX=0;entryY=0.5;entryDx=0;entryDy=0;" edge="1" parent="1" source="OqKxdDuaqaki4ZGM4eli-63" target="OqKxdDuaqaki4ZGM4eli-68">
          <mxGeometry relative="1" as="geometry" />
        </mxCell>
        <mxCell id="OqKxdDuaqaki4ZGM4eli-74" style="rounded=0;orthogonalLoop=1;jettySize=auto;html=1;exitX=1;exitY=1;exitDx=0;exitDy=0;entryX=0;entryY=0.5;entryDx=0;entryDy=0;" edge="1" parent="1" source="OqKxdDuaqaki4ZGM4eli-63" target="OqKxdDuaqaki4ZGM4eli-73">
          <mxGeometry relative="1" as="geometry" />
        </mxCell>
        <mxCell id="OqKxdDuaqaki4ZGM4eli-84" style="rounded=0;orthogonalLoop=1;jettySize=auto;html=1;exitX=0.5;exitY=0;exitDx=0;exitDy=0;entryX=0;entryY=1;entryDx=0;entryDy=0;" edge="1" parent="1" source="OqKxdDuaqaki4ZGM4eli-63" target="OqKxdDuaqaki4ZGM4eli-81">
          <mxGeometry relative="1" as="geometry" />
        </mxCell>
        <mxCell id="OqKxdDuaqaki4ZGM4eli-63" value="" style="ellipse;whiteSpace=wrap;html=1;aspect=fixed;" vertex="1" parent="1">
          <mxGeometry x="440" y="430" width="110" height="110" as="geometry" />
        </mxCell>
        <mxCell id="OqKxdDuaqaki4ZGM4eli-64" value="" style="ellipse;whiteSpace=wrap;html=1;aspect=fixed;" vertex="1" parent="1">
          <mxGeometry x="455" y="445" width="80" height="80" as="geometry" />
        </mxCell>
        <mxCell id="OqKxdDuaqaki4ZGM4eli-75" style="edgeStyle=orthogonalEdgeStyle;rounded=0;orthogonalLoop=1;jettySize=auto;html=1;exitX=0.5;exitY=0;exitDx=0;exitDy=0;entryX=0.5;entryY=1;entryDx=0;entryDy=0;dashed=1;strokeColor=#FF6666;curved=1;" edge="1" parent="1" source="OqKxdDuaqaki4ZGM4eli-65" target="OqKxdDuaqaki4ZGM4eli-24">
          <mxGeometry relative="1" as="geometry">
            <Array as="points">
              <mxPoint x="595" y="300" />
              <mxPoint x="585" y="300" />
            </Array>
          </mxGeometry>
        </mxCell>
        <mxCell id="OqKxdDuaqaki4ZGM4eli-65" value="trigger1" style="ellipse;whiteSpace=wrap;html=1;" vertex="1" parent="1">
          <mxGeometry x="570" y="400" width="50" height="30" as="geometry" />
        </mxCell>
        <mxCell id="OqKxdDuaqaki4ZGM4eli-76" style="edgeStyle=orthogonalEdgeStyle;rounded=0;orthogonalLoop=1;jettySize=auto;html=1;exitX=1;exitY=0.5;exitDx=0;exitDy=0;entryX=0.5;entryY=1;entryDx=0;entryDy=0;dashed=1;strokeColor=#FF6666;" edge="1" parent="1" source="OqKxdDuaqaki4ZGM4eli-68" target="OqKxdDuaqaki4ZGM4eli-69">
          <mxGeometry relative="1" as="geometry" />
        </mxCell>
        <mxCell id="OqKxdDuaqaki4ZGM4eli-68" value="trigger2" style="ellipse;whiteSpace=wrap;html=1;" vertex="1" parent="1">
          <mxGeometry x="580" y="445" width="50" height="30" as="geometry" />
        </mxCell>
        <mxCell id="OqKxdDuaqaki4ZGM4eli-69" value="task" style="ellipse;whiteSpace=wrap;html=1;" vertex="1" parent="1">
          <mxGeometry x="1060" y="390" width="50" height="30" as="geometry" />
        </mxCell>
        <mxCell id="OqKxdDuaqaki4ZGM4eli-70" value="task" style="ellipse;whiteSpace=wrap;html=1;" vertex="1" parent="1">
          <mxGeometry x="1130" y="390" width="50" height="30" as="geometry" />
        </mxCell>
        <mxCell id="OqKxdDuaqaki4ZGM4eli-71" value="task" style="ellipse;whiteSpace=wrap;html=1;" vertex="1" parent="1">
          <mxGeometry x="1190" y="390" width="50" height="30" as="geometry" />
        </mxCell>
        <mxCell id="OqKxdDuaqaki4ZGM4eli-77" style="edgeStyle=orthogonalEdgeStyle;rounded=0;orthogonalLoop=1;jettySize=auto;html=1;exitX=1;exitY=0.5;exitDx=0;exitDy=0;entryX=0.5;entryY=1;entryDx=0;entryDy=0;dashed=1;strokeColor=#FF6666;" edge="1" parent="1" source="OqKxdDuaqaki4ZGM4eli-73" target="OqKxdDuaqaki4ZGM4eli-70">
          <mxGeometry relative="1" as="geometry" />
        </mxCell>
        <mxCell id="OqKxdDuaqaki4ZGM4eli-73" value="trigger2" style="ellipse;whiteSpace=wrap;html=1;" vertex="1" parent="1">
          <mxGeometry x="580" y="475" width="50" height="30" as="geometry" />
        </mxCell>
        <mxCell id="OqKxdDuaqaki4ZGM4eli-80" value="任务优先级提升的定时器" style="text;html=1;strokeColor=none;fillColor=none;align=center;verticalAlign=middle;whiteSpace=wrap;rounded=0;" vertex="1" parent="1">
          <mxGeometry x="465" y="550" width="60" height="30" as="geometry" />
        </mxCell>
        <mxCell id="OqKxdDuaqaki4ZGM4eli-82" style="edgeStyle=orthogonalEdgeStyle;rounded=0;orthogonalLoop=1;jettySize=auto;html=1;exitX=0.5;exitY=0;exitDx=0;exitDy=0;dashed=1;strokeColor=#FF6666;curved=1;entryX=0.5;entryY=1;entryDx=0;entryDy=0;" edge="1" parent="1" source="OqKxdDuaqaki4ZGM4eli-81" target="OqKxdDuaqaki4ZGM4eli-24">
          <mxGeometry relative="1" as="geometry">
            <mxPoint x="585" y="190" as="targetPoint" />
            <Array as="points">
              <mxPoint x="543" y="380" />
              <mxPoint x="543" y="300" />
              <mxPoint x="570" y="300" />
              <mxPoint x="570" y="190" />
            </Array>
          </mxGeometry>
        </mxCell>
        <mxCell id="OqKxdDuaqaki4ZGM4eli-81" value="trigger0" style="ellipse;whiteSpace=wrap;html=1;" vertex="1" parent="1">
          <mxGeometry x="520" y="380" width="50" height="30" as="geometry" />
        </mxCell>
      </root>
    </mxGraphModel>
  </diagram>
</mxfile>
